<?xml version="1.0" encoding="UTF-8"?>
<!-- Generator: https://ezgif.com/png-to-svg -->
<svg version="1.1" xmlns="http://www.w3.org/2000/svg" width="96" height="96">
<path d="M0 0 C1.89 0.03 1.89 0.03 3.81 0.06 C4.84 3.3 4.78 4.19 3.81 7.69 C2.28 13.38 2.3 19.07 5 24.41 C5.88 25.79 6.8 27.14 7.75 28.47 C8.81 30.06 8.81 30.06 8.81 32.06 C16.44 35.96 23.25 38.38 31.81 39.06 C32.81 40.06 32.81 40.06 32.94 43 C31.99 48.98 27.12 53.18 22.81 57.06 C14.45 62.56 5.49 62.95 -4.19 62.06 C-12.31 60.16 -18.56 54.45 -23.56 48 C-28.08 39.83 -29.03 31.51 -26.91 22.48 C-24.54 14.52 -20.27 8.14 -13.06 3.77 C-8.74 1.57 -4.92 -0.08 0 0 Z M-14.19 14.06 C-18.96 20.26 -21.95 26.13 -20.93 34.09 C-19.21 42.28 -15.12 48.41 -8.19 53.06 C-1.97 56.12 5.64 56.29 12.26 54.34 C16.56 52.32 19.72 49.64 22.81 46.06 C22.81 45.73 22.81 45.4 22.81 45.06 C22.2 44.92 21.58 44.77 20.94 44.62 C12.16 42.29 5.35 39.04 0.38 31.19 C-3.55 23.91 -4.53 17.28 -4.19 9.06 C-8.56 9.06 -11.12 11.16 -14.19 14.06 Z " fill="#F5A5BE" transform="translate(41.1875,29.9375)"/>
<path d="M0 0 C5.65 0.39 9.81 0.81 14 5 C14.5 8.06 14.35 10.93 14 14 C6.25 13.12 6.25 13.12 4 12 C4.05 13.36 4.05 13.36 4.11 14.74 C4.13 15.92 4.16 17.1 4.19 18.31 C4.24 20.07 4.24 20.07 4.29 21.86 C4 25 4 25 2.8 26.89 C0.42 28.35 -1.22 28.4 -4 28.38 C-4.87 28.38 -5.73 28.39 -6.62 28.4 C-9.44 27.93 -10.33 27.29 -12 25 C-12.64 19.87 -12.64 19.87 -10.77 17.32 C-8.48 15.61 -7.14 15.69 -4.31 15.81 C-2.89 15.87 -1.47 15.94 0 16 C0 10.72 0 5.44 0 0 Z " fill="#F4A4BE" transform="translate(74,28)"/>
<path d="M0 0 C0 1.98 0 3.96 0 6 C1.98 6 3.96 6 6 6 C7.12 9.75 7.12 9.75 6 12 C4.02 12 2.04 12 0 12 C0 13.98 0 15.96 0 18 C-3.75 19.12 -3.75 19.12 -6 18 C-6 16.02 -6 14.04 -6 12 C-7.98 12 -9.96 12 -12 12 C-13.12 8.25 -13.12 8.25 -12 6 C-10.02 6 -8.04 6 -6 6 C-6 4.02 -6 2.04 -6 0 C-3.51 -1.25 -2.59 -0.78 0 0 Z " fill="#F5A4BE" transform="translate(22,12)"/>
<path d="M0 0 C0 1.32 0 2.64 0 4 C1.32 4 2.64 4 4 4 C5.12 7.75 5.12 7.75 4 10 C2.68 10 1.36 10 0 10 C0 11.32 0 12.64 0 14 C-3.75 15.12 -3.75 15.12 -6 14 C-6 12.68 -6 11.36 -6 10 C-7.32 10 -8.64 10 -10 10 C-11.12 6.25 -11.12 6.25 -10 4 C-8.68 4 -7.36 4 -6 4 C-6 2.68 -6 1.36 -6 0 C-3.51 -1.25 -2.59 -0.78 0 0 Z " fill="#F5A4BD" transform="translate(56,8)"/>
</svg>
